inDegrees=yes
name=ik_S46_A12_T02
DataType=double
version=3
OpenSimVersion=4.3-2021-08-27-4bc7ad9
endheader
time	pelvis_tilt	pelvis_list	pelvis_rotation	pelvis_tx	pelvis_ty	pelvis_tz	hip_flexion_r	hip_adduction_r	hip_rotation_r	knee_angle_r	knee_angle_r_beta	ankle_angle_r	subtalar_angle_r	mtp_angle_r	hip_flexion_l	hip_adduction_l	hip_rotation_l	knee_angle_l	knee_angle_l_beta	ankle_angle_l	subtalar_angle_l	mtp_angle_l	lumbar_extension	lumbar_bending	lumbar_rotation	arm_flex_r	arm_add_r	arm_rot_r	elbow_flex_r	pro_sup_r	wrist_flex_r	wrist_dev_r	arm_flex_l	arm_add_l	arm_rot_l	elbow_flex_l	pro_sup_l	wrist_flex_l	wrist_dev_l
0	0	0	0	0	0.9399999999999999	0	0	0	0	0	0	0	0	0	0	0	0	0	0	0	0	0	0	0	0	0	0	0	0	89.99999999963507	0	0	0	0	0	0	89.99999999869995	0	0
0.02	0.7698604326619806	0.9168133602277018	31.3599153074556	0	0.9399999999999999	0	1.585857410501179	-0.7415657769572712	-0.5327929607833816	2.469178829953832	0.04309530040323556	0	0	0	1.585857410501179	-0.7415657769572712	-0.5327929607833816	2.469178829953832	0.04309530040323556	0	0	0	1.405466644031098	1.665720200364984	15.21259381461083	6.50209222013076	-8.02675301644922	-9.398040826915496	5.467567555914409	108.5353896924918	0	0	0.2766833067533604	-1.098011310842163	-4.227331590971445	0.09134615376412457	99.91934062960044	0	0
0.04	0.7594226864161804	0.9203060656217125	31.66440335117597	0	0.9399999999999999	0	3.521349566181823	-1.6089824690371	-1.236690905423004	4.165570344126246	0.07270291772843623	0	0	0	3.521349566181823	-1.6089824690371	-1.236690905423004	4.165570344126246	0.07270291772843623	0	0	0	1.383303494472663	1.636036718134656	14.92899966331549	6.536931539165555	-8.056281536119549	-9.415074453544918	5.456545524187391	108.5007424046781	0	0	0.338353929636419	-1.107521733894	-4.21862911452649	0.06770065421312967	99.91619789223098	0	0
0.06	0.7489322677766214	0.9137967828849642	31.89282142581789	0	0.9399999999999999	0	4.93129264125777	-2.220017208328921	-1.732185046312051	5.481741804906367	0.09567444323983275	0	0	0	4.93129264125777	-2.220017208328921	-1.732185046312051	5.481741804906367	0.09567444323983275	0	0	0	1.372452328436415	1.579606896717765	14.76469102348777	6.542889387714187	-8.012265583820811	-9.465528601401122	5.513558234096639	108.4773050168413	0	0	0.3639915070721354	-1.129758751161094	-4.160325597537994	0.08018338241165029	99.89425738509466	0	0
0.08	0.7288434940054119	0.9002600172507818	32.10509383077907	0	0.9399999999999999	0	6.131622457245594	-2.723150005607711	-2.144608724856434	6.630093780740626	0.1157169661899229	0	0	0	6.131622457245594	-2.723150005607711	-2.144608724856434	6.630093780740626	0.1157169661899229	0	0	0	1.343195373666638	1.542528566213527	14.59419699171566	6.63147767726084	-8.004699925722564	-9.473063481313163	5.457721637847021	108.5119559140325	0	0	0.43950024587174	-1.138160650519126	-4.108531659851853	0.08498380160832453	99.89858175507582	0	0
0.1	0.7290820392348937	0.8920757136072911	32.29701277251133	0	0.9399999999999999	0	7.207875764763693	-3.167170964549806	-2.508111971324259	7.700578174152388	0.1344004434461725	0	0	0	7.207875764763693	-3.167170964549806	-2.508111971324259	7.700578174152388	0.1344004434461725	0	0	0	1.334688110084738	1.508099135479277	14.43407704742628	6.661846135657418	-7.986066730469467	-9.457653114959133	5.458305121796418	108.4741515323011	0	0	0.4656244645989578	-1.16705019853122	-4.073041553713434	0.080463176589045	99.90201804682621	0	0
0.12	0.7240665292543519	0.8941740688518708	32.44776313704784	0	0.9399999999999999	0	8.159472245516284	-3.542272868023415	-2.823645146719045	8.640451927711116	0.15080433499885	0	0	0	8.159472245516284	-3.542272868023415	-2.823645146719045	8.640451927711116	0.15080433499885	0	0	0	1.327924491407808	1.461924319565582	14.32078336860273	6.64451047558028	-7.967943928696457	-9.473093596622231	5.536468285819317	108.4254784428344	0	0	0.4901464719705828	-1.193522735312187	-4.0261919230066	0.04768292099149677	99.88624612870892	0	0
0.14	0.7197166254406788	0.8666744877847468	32.61123665015248	0	0.9399999999999999	0	8.960974481450942	-3.848829776034761	-3.085306275384499	9.438189956402256	0.1647274901678794	0	0	0	8.960974481450942	-3.848829776034761	-3.085306275384499	9.438189956402256	0.1647274901678794	0	0	0	1.300348298182029	1.427430327641141	14.22366114973794	6.697399161964392	-7.972726980295204	-9.516686248751089	5.528712410725549	108.3940461739311	0	0	0.5443175474524242	-1.233816820612509	-3.952070157188487	0.07098549322058939	99.86289898703393	0	0
0.16	0.708838412607104	0.8456708684573983	32.6510418500401	0	0.9399999999999999	0	9.187652206919537	-3.931604505084079	-3.158315254888468	9.657663130245149	0.1685580196712398	0	0	0	9.187652206919537	-3.931604505084079	-3.158315254888468	9.657663130245149	0.1685580196712398	0	0	0	1.278438098943216	1.411728699529421	14.20269612648068	6.764303410857786	-8.009069907693959	-9.596483867887539	5.567205497844443	108.4023044131488	0	0	0.6028403916358974	-1.229796933428808	-3.955804957764891	0.01217531692514571	99.8963874387515	0	0
0.18	0.7144602338746088	0.8323168391406301	32.71333434928369	0	0.9399999999999999	0	9.4202621923557	-4.017401515473012	-3.233171396184027	9.887690512344612	0.1725727548586185	0	0	0	9.4202621923557	-4.017401515473012	-3.233171396184027	9.887690512344612	0.1725727548586185	0	0	0	1.274644111736008	1.393717818442636	14.17053561034716	6.777625245661428	-7.997541495151697	-9.624780506131806	5.6052950749577	108.4193800002581	0	0	0.6146239786829081	-1.242113925175623	-3.937583509585339	0.03713010398512254	99.94511528858337	0	0
0.2	0.7146904717066295	0.832809531451959	32.81745222223512	0	0.9399999999999999	0	10.27125600918819	-4.336923350245938	-3.506513362245312	10.76004933488558	0.1877982885707792	0	0	0	10.27125600918819	-4.336923350245938	-3.506513362245312	10.76004933488558	0.1877982885707792	0	0	0	1.2720154389649	1.373580978681307	14.05750756339656	6.794494952531693	-8.008851258538018	-9.642344709476694	5.630601039562921	108.4253755371976	0	0	0.6242022049628323	-1.240617602264756	-3.958810364619779	0.06881309177629603	99.97895068132307	0	0
0.22	0.7155822200405437	0.8268151588563147	32.88184120194035	0	0.9399999999999999	0	10.51617241731522	-4.424624846999286	-3.583923127726574	11.00745966531007	0.1921164134401338	0	0	0	10.51617241731522	-4.424624846999286	-3.583923127726574	11.00745966531007	0.1921164134401338	0	0	0	1.268040134154395	1.364066188171785	14.01421771161607	6.803573646772024	-8.000450417980195	-9.670155452895925	5.673578679754494	108.3794908043169	0	0	0.6473084419849389	-1.240227352269144	-3.964226471077766	0.06203929798219475	99.99049393259273	0	0
0.24	0.7162669797600781	0.8272176951091399	32.90980064629026	0	0.9399999999999999	0	10.72415637969867	-4.497922768731383	-3.649287173622235	11.21641870015641	0.1957634365999919	0	0	0	10.72415637969867	-4.497922768731383	-3.649287173622235	11.21641870015641	0.1957634365999919	0	0	0	1.267569358899568	1.360133429532737	13.98142407369772	6.79970380361293	-8.051313593375985	-9.663479467629145	5.702464151981155	108.3540682044794	0	0	0.6461450678500523	-1.24366383734123	-3.966398145963251	0.04196948707561789	99.99211041153299	0	0
